<?xml version="1.0" encoding="UTF-8" standalone="no"?>
<svg
   xmlns:dc="http://purl.org/dc/elements/1.1/"
   xmlns:cc="http://creativecommons.org/ns#"
   xmlns:rdf="http://www.w3.org/1999/02/22-rdf-syntax-ns#"
   xmlns:svg="http://www.w3.org/2000/svg"
   xmlns="http://www.w3.org/2000/svg"
   xmlns:sodipodi="http://sodipodi.sourceforge.net/DTD/sodipodi-0.dtd"
   xmlns:inkscape="http://www.inkscape.org/namespaces/inkscape"
   width="146"
   height="24"
   version="1.1"
   id="svg92"
   sodipodi:docname="logo white.svg"
   inkscape:version="0.92.3 (2405546, 2018-03-11)">
  <metadata
     id="metadata98">
    <rdf:RDF>
      <cc:Work
         rdf:about="">
        <dc:format>image/svg+xml</dc:format>
        <dc:type
           rdf:resource="http://purl.org/dc/dcmitype/StillImage" />
        <dc:title></dc:title>
      </cc:Work>
    </rdf:RDF>
  </metadata>
  <defs
     id="defs96" />
  <sodipodi:namedview
     pagecolor="#ffffff"
     bordercolor="#666666"
     borderopacity="1"
     objecttolerance="10"
     gridtolerance="10"
     guidetolerance="10"
     inkscape:pageopacity="0"
     inkscape:pageshadow="2"
     inkscape:window-width="1366"
     inkscape:window-height="713"
     id="namedview94"
     showgrid="false"
     inkscape:zoom="8.1849315"
     inkscape:cx="62.98159"
     inkscape:cy="16.887029"
     inkscape:window-x="0"
     inkscape:window-y="27"
     inkscape:window-maximized="1"
     inkscape:current-layer="svg92" />
  <g
     fill="none"
     fill-rule="evenodd"
     id="g90">
    <path
       fill="#242D52"
       fill-rule="nonzero"
       d="M40.014 16.809V8.553c0-1.577.366-2.82 1.098-3.73.733-.91 1.65-1.365 2.75-1.365 2.158 0 3.237 1.577 3.237 4.731v8.62h3.782v-9.58c0-2.415-.5-4.22-1.503-5.417C48.376.615 46.945.017 45.084.017c-1.222 0-2.34.234-3.352.703a6.833 6.833 0 00-2.56 2.043h-.066C38.126.932 36.486.017 34.184.017c-.969 0-1.902.217-2.799.653a6.976 6.976 0 00-2.353 1.878h-.05V.265H25.2v16.527h3.782V8.553c0-1.577.372-2.82 1.115-3.73.743-.91 1.693-1.365 2.849-1.365 2.19 0 3.286 1.577 3.286 4.731v8.62h3.782zm21.101.248c2.246 0 3.997-.827 5.252-2.482h.05v2.217h3.616V.265h-3.782V2.25h-.066C64.93.761 63.23.017 61.082.017a7.76 7.76 0 00-5.681 2.415c-.705.75-1.26 1.66-1.668 2.73a9.589 9.589 0 00-.611 3.44c0 1.258.203 2.416.61 3.475.408 1.059.964 1.952 1.669 2.68a7.348 7.348 0 002.535 1.696 8.325 8.325 0 003.18.604zm.595-3.441c-1.399 0-2.538-.466-3.419-1.398-.88-.932-1.321-2.132-1.321-3.599 0-1.555.454-2.804 1.362-3.747.909-.943 2.04-1.414 3.394-1.414 1.343 0 2.458.493 3.345 1.48.886.988 1.33 2.215 1.33 3.681 0 1.467-.455 2.667-1.363 3.599-.909.932-2.018 1.398-3.328 1.398zm27.112 3.193V7.064c0-2.393-.536-4.166-1.61-5.319C86.14.593 84.655.017 82.762.017a7.373 7.373 0 00-3.056.645 6.958 6.958 0 00-2.477 1.87h-.05V.264h-3.782v16.527h3.782V8.487c0-1.588.388-2.823 1.164-3.706.777-.882 1.814-1.323 3.113-1.323.595 0 1.104.077 1.528.231.424.155.796.406 1.115.753.32.348.556.819.71 1.415.154.595.231 1.323.231 2.183v8.769h3.782zm10.218.248c2.246 0 3.996-.827 5.252-2.482h.05v2.217h3.616V.265h-3.782V2.25h-.066C102.855.761 101.154.017 99.007.017a7.76 7.76 0 00-5.682 2.415c-.704.75-1.26 1.66-1.668 2.73a9.589 9.589 0 00-.61 3.44c0 1.258.203 2.416.61 3.475.408 1.059.964 1.952 1.668 2.68a7.348 7.348 0 002.536 1.696 8.325 8.325 0 003.179.604zm.594-3.441c-1.398 0-2.538-.466-3.418-1.398-.881-.932-1.322-2.132-1.322-3.599 0-1.555.455-2.804 1.363-3.747.908-.943 2.04-1.414 3.394-1.414 1.343 0 2.458.493 3.344 1.48.886.988 1.33 2.215 1.33 3.681 0 1.467-.455 2.667-1.363 3.599-.908.932-2.018 1.398-3.328 1.398zm19.07 10.125c1.2 0 2.274-.14 3.22-.422.947-.281 1.743-.673 2.387-1.175a6.385 6.385 0 001.602-1.844 8.14 8.14 0 00.916-2.383c.188-.86.281-1.803.281-2.829V.265h-3.782v1.737h-.066a7.059 7.059 0 00-2.353-1.49A7.62 7.62 0 00118.142 0c-1.508 0-2.862.358-4.062 1.075-1.2.717-2.134 1.713-2.8 2.987-.666 1.273-.999 2.705-.999 4.293 0 1.61.35 3.038 1.049 4.285.699 1.246 1.66 2.203 2.882 2.87 1.222.667 2.598 1.001 4.129 1.001 2.047 0 3.716-.673 5.004-2.018h.066v1.753c0 1.17-.43 2.14-1.288 2.912-.86.772-2.07 1.158-3.634 1.158-1.068 0-2.006-.132-2.816-.397-.809-.265-1.742-.678-2.799-1.24l-.892 3.341c.925.552 1.966.976 3.122 1.274 1.156.298 2.356.447 3.6.447zm.132-10.72c-1.365 0-2.491-.434-3.377-1.3-.887-.865-1.33-2.026-1.33-3.482 0-1.4.435-2.542 1.305-3.425.87-.882 2.004-1.323 3.402-1.323 1.332 0 2.442.435 3.328 1.307.886.871 1.33 2.002 1.33 3.391 0 1.401-.433 2.556-1.297 3.466-.864.91-1.985 1.365-3.361 1.365zm19.086 4.036c1.542 0 2.899-.281 4.071-.844 1.173-.562 2.133-1.323 2.882-2.283l-2.642-2.266c-1.035 1.301-2.406 1.952-4.113 1.952-1.21 0-2.237-.337-3.08-1.01-.842-.672-1.384-1.593-1.627-2.762h12.024c.066-.397.099-.9.099-1.506 0-1.599-.325-3.027-.975-4.285a7.198 7.198 0 00-2.807-2.961c-1.222-.717-2.632-1.075-4.228-1.075a8.191 8.191 0 00-3.188.62c-.99.414-1.844.99-2.56 1.729-.715.739-1.277 1.638-1.684 2.696-.407 1.06-.611 2.212-.611 3.458 0 1.688.369 3.185 1.106 4.492.738 1.307 1.746 2.308 3.023 3.003 1.277.695 2.714 1.042 4.31 1.042zm3.815-10.274h-8.257c.264-1.059.776-1.878 1.535-2.457.76-.579 1.663-.868 2.709-.868 1.057 0 1.93.298 2.618.893.688.596 1.153 1.406 1.395 2.432z"
       id="path82" />
    <g
       fill="#F3603C"
       id="g88">
      <path
         d="M2.786 10.286c1.538 0 2.785 1.279 2.785 2.857C5.571 14.72 4.324 16 2.786 16 1.247 16 0 14.72 0 13.143c0-1.578 1.247-2.857 2.786-2.857zM2.786 0C4.324 0 5.57 1.28 5.57 2.857c0 1.578-1.247 2.857-2.785 2.857C1.247 5.714 0 4.435 0 2.857 0 1.28 1.247 0 2.786 0zm10.028 0C14.353 0 15.6 1.28 15.6 2.857c0 1.578-1.247 2.857-2.786 2.857-1.538 0-2.785-1.279-2.785-2.857C10.029 1.28 11.276 0 12.814 0z"
         id="path84" />
      <ellipse
         cx="12.814"
         cy="13.257"
         opacity=".5"
         rx="2.786"
         ry="2.857"
         id="ellipse86" />
    </g>
  </g>
  <g
     id="g108"
     fill-rule="evenodd"
     fill="none">
    <path
       id="path100"
       d="M40.014 16.809V8.553c0-1.577.366-2.82 1.098-3.73.733-.91 1.65-1.365 2.75-1.365 2.158 0 3.237 1.577 3.237 4.731v8.62h3.782v-9.58c0-2.415-.5-4.22-1.503-5.417C48.376.615 46.945.017 45.084.017c-1.222 0-2.34.234-3.352.703a6.833 6.833 0 00-2.56 2.043h-.066C38.126.932 36.486.017 34.184.017c-.969 0-1.902.217-2.799.653a6.976 6.976 0 00-2.353 1.878h-.05V.265H25.2v16.527h3.782V8.553c0-1.577.372-2.82 1.115-3.73.743-.91 1.693-1.365 2.849-1.365 2.19 0 3.286 1.577 3.286 4.731v8.62h3.782zm21.101.248c2.246 0 3.997-.827 5.252-2.482h.05v2.217h3.616V.265h-3.782V2.25h-.066C64.93.761 63.23.017 61.082.017a7.76 7.76 0 00-5.681 2.415c-.705.75-1.26 1.66-1.668 2.73a9.589 9.589 0 00-.611 3.44c0 1.258.203 2.416.61 3.475.408 1.059.964 1.952 1.669 2.68a7.348 7.348 0 002.535 1.696 8.325 8.325 0 003.18.604zm.595-3.441c-1.399 0-2.538-.466-3.419-1.398-.88-.932-1.321-2.132-1.321-3.599 0-1.555.454-2.804 1.362-3.747.909-.943 2.04-1.414 3.394-1.414 1.343 0 2.458.493 3.345 1.48.886.988 1.33 2.215 1.33 3.681 0 1.467-.455 2.667-1.363 3.599-.909.932-2.018 1.398-3.328 1.398zm27.112 3.193V7.064c0-2.393-.536-4.166-1.61-5.319C86.14.593 84.655.017 82.762.017a7.373 7.373 0 00-3.056.645 6.958 6.958 0 00-2.477 1.87h-.05V.264h-3.782v16.527h3.782V8.487c0-1.588.388-2.823 1.164-3.706.777-.882 1.814-1.323 3.113-1.323.595 0 1.104.077 1.528.231.424.155.796.406 1.115.753.32.348.556.819.71 1.415.154.595.231 1.323.231 2.183v8.769h3.782zm10.218.248c2.246 0 3.996-.827 5.252-2.482h.05v2.217h3.616V.265h-3.782V2.25h-.066C102.855.761 101.154.017 99.007.017a7.76 7.76 0 00-5.682 2.415c-.704.75-1.26 1.66-1.668 2.73a9.589 9.589 0 00-.61 3.44c0 1.258.203 2.416.61 3.475.408 1.059.964 1.952 1.668 2.68a7.348 7.348 0 002.536 1.696 8.325 8.325 0 003.179.604zm.594-3.441c-1.398 0-2.538-.466-3.418-1.398-.881-.932-1.322-2.132-1.322-3.599 0-1.555.455-2.804 1.363-3.747.908-.943 2.04-1.414 3.394-1.414 1.343 0 2.458.493 3.344 1.48.886.988 1.33 2.215 1.33 3.681 0 1.467-.455 2.667-1.363 3.599-.908.932-2.018 1.398-3.328 1.398zm19.07 10.125c1.2 0 2.274-.14 3.22-.422.947-.281 1.743-.673 2.387-1.175a6.385 6.385 0 001.602-1.844 8.14 8.14 0 00.916-2.383c.188-.86.281-1.803.281-2.829V.265h-3.782v1.737h-.066a7.059 7.059 0 00-2.353-1.49A7.62 7.62 0 00118.142 0c-1.508 0-2.862.358-4.062 1.075-1.2.717-2.134 1.713-2.8 2.987-.666 1.273-.999 2.705-.999 4.293 0 1.61.35 3.038 1.049 4.285.699 1.246 1.66 2.203 2.882 2.87 1.222.667 2.598 1.001 4.129 1.001 2.047 0 3.716-.673 5.004-2.018h.066v1.753c0 1.17-.43 2.14-1.288 2.912-.86.772-2.07 1.158-3.634 1.158-1.068 0-2.006-.132-2.816-.397-.809-.265-1.742-.678-2.799-1.24l-.892 3.341c.925.552 1.966.976 3.122 1.274 1.156.298 2.356.447 3.6.447zm.132-10.72c-1.365 0-2.491-.434-3.377-1.3-.887-.865-1.33-2.026-1.33-3.482 0-1.4.435-2.542 1.305-3.425.87-.882 2.004-1.323 3.402-1.323 1.332 0 2.442.435 3.328 1.307.886.871 1.33 2.002 1.33 3.391 0 1.401-.433 2.556-1.297 3.466-.864.91-1.985 1.365-3.361 1.365zm19.086 4.036c1.542 0 2.899-.281 4.071-.844 1.173-.562 2.133-1.323 2.882-2.283l-2.642-2.266c-1.035 1.301-2.406 1.952-4.113 1.952-1.21 0-2.237-.337-3.08-1.01-.842-.672-1.384-1.593-1.627-2.762h12.024c.066-.397.099-.9.099-1.506 0-1.599-.325-3.027-.975-4.285a7.198 7.198 0 00-2.807-2.961c-1.222-.717-2.632-1.075-4.228-1.075a8.191 8.191 0 00-3.188.62c-.99.414-1.844.99-2.56 1.729-.715.739-1.277 1.638-1.684 2.696-.407 1.06-.611 2.212-.611 3.458 0 1.688.369 3.185 1.106 4.492.738 1.307 1.746 2.308 3.023 3.003 1.277.695 2.714 1.042 4.31 1.042zm3.815-10.274h-8.257c.264-1.059.776-1.878 1.535-2.457.76-.579 1.663-.868 2.709-.868 1.057 0 1.93.298 2.618.893.688.596 1.153 1.406 1.395 2.432z"
       fill-rule="nonzero"
       fill="#242D52" />
    <g
       id="g106"
       fill="#F3603C">
      <path
         id="path102"
         d="M2.786 10.286c1.538 0 2.785 1.279 2.785 2.857C5.571 14.72 4.324 16 2.786 16 1.247 16 0 14.72 0 13.143c0-1.578 1.247-2.857 2.786-2.857zM2.786 0C4.324 0 5.57 1.28 5.57 2.857c0 1.578-1.247 2.857-2.785 2.857C1.247 5.714 0 4.435 0 2.857 0 1.28 1.247 0 2.786 0zm10.028 0C14.353 0 15.6 1.28 15.6 2.857c0 1.578-1.247 2.857-2.786 2.857-1.538 0-2.785-1.279-2.785-2.857C10.029 1.28 11.276 0 12.814 0z" />
      <ellipse
         id="ellipse104"
         ry="2.857"
         rx="2.786"
         opacity=".5"
         cy="13.257"
         cx="12.814" />
    </g>
  </g>
  <path
     style="fill:#f9f9f9;fill-opacity:0.98930485;stroke-width:0.12217573"
     d="M 25.253724,8.5668619 V 0.32 h 1.832636 1.832636 v 1.0995816 c 0,0.6047699 0.03423,1.0995816 0.07606,1.0995816 0.04183,0 0.414835,-0.3161297 0.828891,-0.7025105 1.949504,-1.81920132 4.89762,-2.27675922 7.214405,-1.11970087 0.532653,0.26601982 1.495204,1.17571077 1.90012,1.79577227 l 0.182194,0.2790004 0.742556,-0.7089216 C 41.209545,0.77746186 43.02076,0.07388553 44.974101,0.07745443 47.83129,0.08267473 49.466014,1.215113 50.391482,3.8302884 l 0.335879,0.9491258 0.03691,6.0171548 0.03691,6.017155 h -1.839001 -1.839 l -0.0021,-4.856486 C 47.118818,6.8280118 47.049723,6.0118627 46.532581,5.0061747 46.003128,3.9765428 45.103464,3.4640949 43.824435,3.463618 43.254473,3.4634103 42.86645,3.5408 42.449892,3.7377827 41.685569,4.099217 40.736458,5.1526392 40.38274,6.0321237 40.107844,6.7156205 40.098712,6.8669673 40.038131,11.743431 l -0.06223,5.009205 -1.856001,0.03369 -1.856,0.03369 -0.04313,-5.226156 C 36.172969,5.8027076 36.14976,5.6137618 35.358843,4.5768007 34.873101,3.9399493 34.405332,3.6565656 33.582171,3.5004563 31.912683,3.1838445 30.299285,4.0791968 29.516271,5.7568201 28.995247,6.8731255 28.92092,7.7068247 28.919919,12.445941 l -9.23e-4,4.367783 H 27.08636 25.253724 Z"
     id="path4810"
     inkscape:connector-curvature="0" />
  <path
     style="fill:#f9f9f9;fill-opacity:0.98930485;stroke-width:0.12217573"
     d="m 59.890544,16.943542 c -2.667856,-0.435436 -4.639653,-1.845273 -5.795908,-4.144081 -0.640166,-1.272748 -0.884608,-2.422188 -0.88712,-4.1715112 -0.0026,-1.8382023 0.251993,-2.9427142 1.01772,-4.4145375 1.363876,-2.6215428 3.861374,-4.13415198 6.825977,-4.13415198 1.871515,0 3.42255,0.56020215 4.608299,1.66442358 0.313689,0.2921203 0.587199,0.5311278 0.6078,0.5311278 0.0206,0 0.03746,-0.4398326 0.03746,-0.9774058 V 0.32 h 1.832636 1.832636 v 8.2468619 8.2468621 h -1.77155 -1.771548 V 15.700983 14.58824 l -0.743528,0.688376 c -0.811264,0.751088 -1.520121,1.157764 -2.551354,1.463733 -0.807388,0.239552 -2.405121,0.339706 -3.24152,0.203193 z m 3.814115,-3.741698 c 1.30399,-0.637982 2.281133,-1.895876 2.584915,-3.3276066 0.42566,-2.0061466 -0.184915,-4.0666467 -1.573089,-5.3086858 -2.42154,-2.1666214 -6.372916,-1.0920054 -7.445258,2.0248125 -0.897687,2.6091732 0.09526,5.5153249 2.238456,6.5515149 0.874627,0.422863 1.241572,0.490181 2.424987,0.444878 0.86888,-0.03326 1.197153,-0.104651 1.769989,-0.384913 z"
     id="path4812"
     inkscape:connector-curvature="0" />
  <path
     style="fill:#f9f9f9;fill-opacity:0.98930485;stroke-width:0.12217573"
     d="m 73.472413,16.732273 c -0.0448,-0.0448 -0.08145,-3.755885 -0.08145,-8.2468616 V 0.32 h 1.893724 1.893724 V 1.4293541 2.538708 l 0.702511,-0.6278707 c 1.300829,-1.16262051 3.084439,-1.83663176 4.85161,-1.83338287 3.033165,0.0055764 4.924956,1.39238747 5.757925,4.22094797 0.186956,0.634858 0.219707,1.4608942 0.262493,6.6203426 l 0.04889,5.894979 h -1.830731 -1.830731 l -0.05282,-5.161925 C 85.030422,6.0683898 84.990666,5.7012581 84.336053,4.7120712 83.229315,3.0396777 79.849934,3.0247112 78.391528,4.6857443 77.907127,5.2374464 77.481943,6.1098397 77.315782,6.8929592 77.227856,7.3073538 77.17841,9.2093411 77.17841,12.17706 v 4.636664 h -1.812273 c -0.996751,0 -1.848926,-0.03665 -1.893724,-0.08145 z"
     id="path4814"
     inkscape:connector-curvature="0" />
  <path
     style="fill:#f9f9f9;fill-opacity:0.98930485;stroke-width:0.12217573"
     d="M 97.520669,16.884888 C 94.934368,16.38148 93.124806,15.01543 92.025704,12.736703 91.383786,11.405838 91.105669,10.152184 91.108565,8.6025565 c 0.0093,-4.9534133 3.333927,-8.52690796 7.933176,-8.52690796 1.821119,0 3.279639,0.52570002 4.465509,1.60951526 l 0.672,0.6141668 V 1.3096653 0.32 h 1.89458 1.89458 l -0.0314,8.216318 -0.0314,8.216318 -1.74101,0.0339 -1.741,0.0339 V 15.7175 c 0,-0.606615 -0.0435,-1.102936 -0.0967,-1.102936 -0.0532,0 -0.34185,0.250189 -0.64142,0.555975 -0.70424,0.718838 -1.46142,1.196568 -2.38611,1.505475 -0.98258,0.328248 -2.682583,0.422221 -3.778661,0.208877 z m 4.121211,-3.711191 c 0.95827,-0.471752 1.81984,-1.353642 2.2665,-2.319942 0.26461,-0.572445 0.33165,-0.9219066 0.37126,-1.9350805 0.0752,-1.9232557 -0.36594,-3.1266237 -1.55316,-4.2371313 -0.75047,-0.7019818 -1.38196,-1.0220856 -2.31169,-1.1718147 -1.625341,-0.2617537 -3.10186,0.2469028 -4.218846,1.453381 -0.996676,1.0765292 -1.235443,1.7730065 -1.235443,3.6037524 0,1.7973371 0.240376,2.5189311 1.18249,3.5497541 1.020073,1.116121 2.056363,1.536621 3.653425,1.482464 0.895504,-0.03037 1.173004,-0.09433 1.845464,-0.425383 z"
     id="path4816"
     inkscape:connector-curvature="0" />
  <path
     style="fill:#f9f9f9;fill-opacity:0.98930485;stroke-width:0.12217573"
     d="m 116.38697,23.538869 c -1.739,-0.31533 -4.46142,-1.349621 -4.34576,-1.651023 0.0288,-0.07501 0.22771,-0.79356 0.44207,-1.59677 0.21436,-0.803211 0.40732,-1.477968 0.42882,-1.499461 0.0215,-0.02149 0.37602,0.131012 0.78785,0.338903 0.41183,0.207889 1.25582,0.552081 1.87554,0.764871 1.0462,0.359225 1.24471,0.386985 2.77614,0.38821 1.42298,0.0011 1.74404,-0.03622 2.33903,-0.27214 1.94201,-0.770028 2.79235,-2.142298 2.79235,-4.506249 0,-0.557053 -0.0325,-1.012825 -0.0722,-1.012825 -0.0397,0 -0.28963,0.186105 -0.55537,0.413566 -2.70945,2.319187 -7.58163,1.99808 -10.25562,-0.675908 -1.7376,-1.737603 -2.56909,-4.4603107 -2.19262,-7.1797477 0.38901,-2.8099542 1.88211,-5.0435516 4.09591,-6.12723678 1.28834,-0.63066239 2.19689,-0.8477973 3.53822,-0.84560409 1.82415,0.0029826 3.28735,0.46555119 4.58646,1.44994347 l 0.67197,0.509176 0.0359,-0.8582869 0.0359,-0.858287 h 1.83196 1.83195 l -0.0388,8.5828452 c -0.0386,8.5452638 -0.04,8.5868538 -0.31876,9.4982928 -0.79526,2.60007 -2.43346,4.230868 -4.97465,4.95218 -0.82307,0.233627 -4.36871,0.357377 -5.31631,0.185551 z m 4.42958,-10.90452 c 0.96323,-0.443485 1.73593,-1.19667 2.20483,-2.149152 0.34355,-0.6978398 0.39966,-0.9506557 0.44135,-1.9885377 0.0365,-0.9093436 -0.003,-1.3427157 -0.16823,-1.842271 -0.42092,-1.2730387 -1.2346,-2.1921976 -2.43827,-2.754363 -0.66372,-0.3099879 -0.8604,-0.3423684 -2.07955,-0.3423684 -1.27532,0 -1.38963,0.021229 -2.16219,0.4015608 -1.84282,0.9072178 -2.8174,2.9687909 -2.44103,5.1636186 0.32086,1.8711147 1.35746,3.1142557 3.06746,3.6786557 1.01681,0.335605 2.64943,0.259288 3.57563,-0.167143 z"
     id="path4818"
     inkscape:connector-curvature="0" />
  <path
     style="fill:#f9f9f9;fill-opacity:0.98930485;stroke-width:0.12217573"
     d="m 136.49909,16.929812 c -3.31055,-0.517197 -5.83926,-2.768302 -6.67679,-5.943812 -0.32214,-1.2214314 -0.35385,-3.5025537 -0.0654,-4.7074867 0.6794,-2.8383802 2.57166,-4.9587273 5.21067,-5.83877187 1.22418,-0.40823163 3.3107,-0.47114854 4.62263,-0.13939037 1.57088,0.39724332 2.50965,0.91673004 3.56436,1.97240354 1.01322,1.0141457 1.53379,1.886745 1.96917,3.3008019 0.23427,0.7608746 0.28279,1.1961159 0.286,2.5656904 l 0.004,1.6493723 -6.02502,0.0317 -6.02502,0.0317 0.0776,0.2737388 c 0.0427,0.150557 0.24036,0.613776 0.43922,1.029375 0.69958,1.462011 2.08876,2.335101 3.90025,2.451274 1.58097,0.10139 2.94956,-0.384916 3.97825,-1.413606 l 0.48276,-0.482762 1.31859,1.116277 1.3186,1.116278 -0.85207,0.803932 c -1.50351,1.418582 -3.26134,2.120335 -5.60457,2.237436 -0.65692,0.03283 -1.52231,0.0085 -1.92309,-0.05415 z m 5.11766,-10.6497418 c -0.44762,-1.2686616 -1.08552,-1.9848867 -2.24082,-2.5159164 -0.53574,-0.2462559 -0.85008,-0.3034705 -1.64937,-0.3002126 -1.79196,0.0073 -3.1148,0.7818879 -3.85085,2.2548572 -0.20586,0.4119591 -0.37429,0.8227039 -0.37429,0.912766 0,0.1336671 0.76213,0.1637494 4.14856,0.1637494 h 4.14855 z"
     id="path4820"
     inkscape:connector-curvature="0" />
</svg>
